{
  "accessors": [
    {
      "bufferView": 2,
      "componentType": 5126,
      "count": 2398,
      "max": [
        15.426300048828125,
        14.817899703979492,
        20.137798309326172
      ],
      "min": [
        1.0263004302978516,
        0.10610198974609375,
        0.55149936676025391
      ],
      "type": "VEC3"
    },
    {
      "bufferView": 2,
      "byteOffset": 28776,
      "componentType": 5126,
      "count": 2398,
      "max": [
        0.99998176097869873,
        0.99989700317382812,
        0.99838721752166748
      ],
      "min": [
        -0.99892479181289673,
        -0.99891704320907593,
        -0.99771720170974731
      ],
      "type": "VEC3"
    },
    {
      "bufferView": 3,
      "componentType": 5126,
      "count": 2398,
      "max": [
        0.99965125322341919,
        0.99994242191314697,
        0.99945229291915894,
        1
      ],
      "min": [
        -0.99980849027633667,
        -0.9999426007270813,
        -0.99996721744537354,
        -1
      ],
      "type": "VEC4"
    },
    {
      "bufferView": 1,
      "componentType": 5126,
      "count": 2398,
      "max": [
        0.96799999475479126,
        0.99000000953674316
      ],
      "min": [
        0.0099999997764825821,
        0.026499999687075615
      ],
      "type": "VEC2"
    },
    {
      "bufferView": 0,
      "componentType": 5125,
      "count": 3972,
      "max": [
        2397
      ],
      "min": [
        0
      ],
      "type": "SCALAR"
    },
    {
      "bufferView": 2,
      "byteOffset": 57552,
      "componentType": 5126,
      "count": 3687,
      "max": [
        15.537799835205078,
        15.140701293945312,
        20.120899200439453
      ],
      "min": [
        1.015200138092041,
        0.09960174560546875,
        0.55149936676025391
      ],
      "type": "VEC3"
    },
    {
      "bufferView": 2,
      "byteOffset": 101796,
      "componentType": 5126,
      "count": 3687,
      "max": [
        0.99998176097869873,
        0.99989700317382812,
        0.99858534336090088
      ],
      "min": [
        -0.99871504306793213,
        -0.99965411424636841,
        -0.99814140796661377
      ],
      "type": "VEC3"
    },
    {
      "bufferView": 3,
      "byteOffset": 38368,
      "componentType": 5126,
      "count": 3687,
      "max": [
        0.99977874755859375,
        0.99998295307159424,
        0.99997812509536743,
        1
      ],
      "min": [
        -0.99961233139038086,
        -0.99997818470001221,
        -0.99990749359130859,
        -1
      ],
      "type": "VEC4"
    },
    {
      "bufferView": 1,
      "byteOffset": 19184,
      "componentType": 5126,
      "count": 3687,
      "max": [
        0.98940002918243408,
        0.99000000953674316
      ],
      "min": [
        0.0099999997764825821,
        0.025499999523162842
      ],
      "type": "VEC2"
    },
    {
      "bufferView": 0,
      "byteOffset": 15888,
      "componentType": 5125,
      "count": 6117,
      "max": [
        3686
      ],
      "min": [
        0
      ],
      "type": "SCALAR"
    },
    {
      "bufferView": 2,
      "byteOffset": 146040,
      "componentType": 5126,
      "count": 7165,
      "max": [
        15.869000434875488,
        16.735601425170898,
        20.167198181152344
      ],
      "min": [
        0.9310002326965332,
        0.15359878540039062,
        0.56749916076660156
      ],
      "type": "VEC3"
    },
    {
      "bufferView": 2,
      "byteOffset": 232020,
      "componentType": 5126,
      "count": 7165,
      "max": [
        0.99997067451477051,
        0.99886941909790039,
        0.9992072582244873
      ],
      "min": [
        -0.99961882829666138,
        -0.9999997615814209,
        -0.99941134452819824
      ],
      "type": "VEC3"
    },
    {
      "bufferView": 3,
      "byteOffset": 97360,
      "componentType": 5126,
      "count": 7165,
      "max": [
        0.99996644258499146,
        0.99995547533035278,
        0.99995714426040649,
        1
      ],
      "min": [
        -0.99997872114181519,
        -0.99999696016311646,
        -0.99996215105056763,
        -1
      ],
      "type": "VEC4"
    },
    {
      "bufferView": 1,
      "byteOffset": 48680,
      "componentType": 5126,
      "count": 7165,
      "max": [
        0.98079997301101685,
        0.99000000953674316
      ],
      "min": [
        0.0099999997764825821,
        0.018200000748038292
      ],
      "type": "VEC2"
    },
    {
      "bufferView": 0,
      "byteOffset": 40356,
      "componentType": 5125,
      "count": 13383,
      "max": [
        7164
      ],
      "min": [
        0
      ],
      "type": "SCALAR"
    },
    {
      "bufferView": 2,
      "byteOffset": 318000,
      "componentType": 5126,
      "count": 65532,
      "max": [
        16.272300720214844,
        16.826900482177734,
        22.257598876953125
      ],
      "min": [
        0,
        0,
        0
      ],
      "type": "VEC3"
    },
    {
      "bufferView": 2,
      "byteOffset": 1104384,
      "componentType": 5126,
      "count": 65532,
      "max": [
        0.99999701976776123,
        0.99998748302459717,
        0.99997305870056152
      ],
      "min": [
        -0.99998438358306885,
        -0.99999451637268066,
        -0.99995744228363037
      ],
      "type": "VEC3"
    },
    {
      "bufferView": 3,
      "byteOffset": 212000,
      "componentType": 5126,
      "count": 65532,
      "max": [
        1,
        0.99999982118606567,
        1,
        1
      ],
      "min": [
        -0.99999982118606567,
        -0.99999874830245972,
        -1,
        -1
      ],
      "type": "VEC4"
    },
    {
      "bufferView": 1,
      "byteOffset": 106000,
      "componentType": 5126,
      "count": 65532,
      "max": [
        0.99000000953674316,
        0.99000000953674316
      ],
      "min": [
        0.0099999997764825821,
        0.014700000174343586
      ],
      "type": "VEC2"
    },
    {
      "bufferView": 0,
      "byteOffset": 93888,
      "componentType": 5125,
      "count": 305769,
      "max": [
        65531
      ],
      "min": [
        0
      ],
      "type": "SCALAR"
    },
    {
      "bufferView": 2,
      "byteOffset": 1890768,
      "componentType": 5126,
      "count": 45019,
      "max": [
        16.272300720214844,
        16.826299667358398,
        22.178798675537109
      ],
      "min": [
        0.0026998519897460938,
        0,
        0.065399169921875
      ],
      "type": "VEC3"
    },
    {
      "bufferView": 2,
      "byteOffset": 2430996,
      "componentType": 5126,
      "count": 45019,
      "max": [
        0.99997138977050781,
        0.99996745586395264,
        0.99995994567871094
      ],
      "min": [
        -0.99997556209564209,
        -0.9999997615814209,
        -0.99982577562332153
      ],
      "type": "VEC3"
    },
    {
      "bufferView": 3,
      "byteOffset": 1260512,
      "componentType": 5126,
      "count": 45019,
      "max": [
        0.99999964237213135,
        0.99999868869781494,
        0.99999916553497314,
        1
      ],
      "min": [
        -0.99999964237213135,
        -0.99999862909317017,
        -0.9999995231628418,
        -1
      ],
      "type": "VEC4"
    },
    {
      "bufferView": 1,
      "byteOffset": 630256,
      "componentType": 5126,
      "count": 45019,
      "max": [
        0.98710000514984131,
        0.99000000953674316
      ],
      "min": [
        0.0099999997764825821,
        0.0099999997764825821
      ],
      "type": "VEC2"
    },
    {
      "bufferView": 0,
      "byteOffset": 1316964,
      "componentType": 5125,
      "count": 150885,
      "max": [
        45018
      ],
      "min": [
        0
      ],
      "type": "SCALAR"
    }
  ],
  "asset": {
    "extras": {
      "author": "Rigsters (https://sketchfab.com/rigsters)",
      "license": "CC-BY-4.0 (http://creativecommons.org/licenses/by/4.0/)",
      "source": "https://sketchfab.com/3d-models/lion-crushing-a-serpent-d5e6b6a11da646f68a5fcba661dcae99",
      "title": "Lion Crushing a Serpent"
    },
    "generator": "Sketchfab-5.41.0",
    "version": "2.0"
  },
  "bufferViews": [
    {
      "buffer": 0,
      "byteLength": 1920504,
      "byteOffset": 0,
      "name": "floatBufferViews",
      "target": 34963
    },
    {
      "buffer": 0,
      "byteLength": 990408,
      "byteOffset": 1920504,
      "byteStride": 8,
      "name": "floatBufferViews",
      "target": 34962
    },
    {
      "buffer": 0,
      "byteLength": 2971224,
      "byteOffset": 2910912,
      "byteStride": 12,
      "name": "floatBufferViews",
      "target": 34962
    },
    {
      "buffer": 0,
      "byteLength": 1980816,
      "byteOffset": 5882136,
      "byteStride": 16,
      "name": "floatBufferViews",
      "target": 34962
    }
  ],
  "buffers": [
    {
      "byteLength": 7862952,
      "uri": "scene.bin"
    }
  ],
  "images": [
    {
      "uri": "textures/Scene_-_Root_metallicRoughness.png"
    },
    {
      "uri": "textures/Scene_-_Root_normal.jpeg"
    },
    {
      "uri": "textures/Scene_-_Root_baseColor.jpeg"
    }
  ],
  "materials": [
    {
      "doubleSided": true,
      "name": "Scene_-_Root",
      "normalTexture": {
        "index": 1,
        "scale": 1,
        "texCoord": 0
      },
      "occlusionTexture": {
        "index": 0,
        "strength": 1,
        "texCoord": 0
      },
      "pbrMetallicRoughness": {
        "baseColorFactor": [
          1,
          1,
          1,
          1
        ],
        "baseColorTexture": {
          "index": 2,
          "texCoord": 0
        },
        "metallicFactor": 0.5,
        "metallicRoughnessTexture": {
          "index": 0,
          "texCoord": 0
        },
        "roughnessFactor": 1
      }
    }
  ],
  "meshes": [
    {
      "primitives": [
        {
          "attributes": {
            "NORMAL": 1,
            "POSITION": 0,
            "TANGENT": 2,
            "TEXCOORD_0": 3
          },
          "indices": 4,
          "material": 0,
          "mode": 4
        }
      ]
    },
    {
      "primitives": [
        {
          "attributes": {
            "NORMAL": 6,
            "POSITION": 5,
            "TANGENT": 7,
            "TEXCOORD_0": 8
          },
          "indices": 9,
          "material": 0,
          "mode": 4
        }
      ]
    },
    {
      "primitives": [
        {
          "attributes": {
            "NORMAL": 11,
            "POSITION": 10,
            "TANGENT": 12,
            "TEXCOORD_0": 13
          },
          "indices": 14,
          "material": 0,
          "mode": 4
        }
      ]
    },
    {
      "primitives": [
        {
          "attributes": {
            "NORMAL": 16,
            "POSITION": 15,
            "TANGENT": 17,
            "TEXCOORD_0": 18
          },
          "indices": 19,
          "material": 0,
          "mode": 4
        }
      ]
    },
    {
      "primitives": [
        {
          "attributes": {
            "NORMAL": 21,
            "POSITION": 20,
            "TANGENT": 22,
            "TEXCOORD_0": 23
          },
          "indices": 24,
          "material": 0,
          "mode": 4
        }
      ]
    }
  ],
  "nodes": [
    {
      "children": [
        1
      ],
      "name": "RootNode (gltf orientation matrix)",
      "rotation": [
        -0.70710678118654746,
        -0,
        -0,
        0.70710678118654757
      ]
    },
    {
      "children": [
        2
      ],
      "matrix": [
        0.42483779788017273,
        -0.90526950359344482,
        0,
        0,
        0,
        0,
        -1,
        0,
        0.90526950359344482,
        0.42483779788017273,
        0,
        0,
        -1.7633522748947144,
        -25.993778228759766,
        -23.218372344970703,
        1
      ],
      "name": "RootNode (model correction matrix)"
    },
    {
      "children": [
        3
      ],
      "matrix": [
        1,
        0,
        0,
        0,
        0,
        1,
        0,
        0,
        0,
        0,
        1,
        0,
        -8.256500244140625,
        -33.503200531005859,
        -9.2573995590209961,
        1
      ],
      "name": "Lion.obj.cleaner.materialmerger.gles"
    },
    {
      "children": [
        4,
        5,
        6,
        7,
        8
      ],
      "name": ""
    },
    {
      "mesh": 0,
      "name": ""
    },
    {
      "mesh": 1,
      "name": ""
    },
    {
      "mesh": 2,
      "name": ""
    },
    {
      "mesh": 3,
      "name": ""
    },
    {
      "mesh": 4,
      "name": ""
    }
  ],
  "samplers": [
    {
      "magFilter": 9729,
      "minFilter": 9987,
      "wrapS": 10497,
      "wrapT": 10497
    }
  ],
  "scene": 0,
  "scenes": [
    {
      "name": "OSG_Scene",
      "nodes": [
        0
      ]
    }
  ],
  "textures": [
    {
      "sampler": 0,
      "source": 0
    },
    {
      "sampler": 0,
      "source": 1
    },
    {
      "sampler": 0,
      "source": 2
    }
  ]
}

